<svg width="151" height="98" viewBox="0 0 151 98" fill="none" xmlns="http://www.w3.org/2000/svg">
<path d="M10.0865 27.4933L28.3068 18.7474L43.9438 9.69894C44.9836 9.09729 46.0652 8.57109 47.1803 8.12439L52.6573 5.9303L58.4813 3.79191C59.218 3.52143 60.035 3.57727 60.728 3.94548L61.6335 4.4266C61.9779 4.6096 62.1932 4.96776 62.1932 5.35777C62.1932 5.71484 62.0125 6.04764 61.713 6.24211L60.5405 7.00352C59.9521 7.38563 59.2656 7.58899 58.564 7.58899H56.2333L63.5555 12.4143L64.3432 11.5423C65.1427 10.6574 66.2794 10.1524 67.472 10.1524H69.1437C69.443 10.1524 69.6857 9.90975 69.6857 9.61041C69.6857 9.2231 70.0802 8.96078 70.4373 9.1106L72.3638 9.91865C72.7014 10.0603 72.9211 10.3906 72.9211 10.7568C72.9211 11.041 72.7881 11.3089 72.5617 11.4807L71.0557 12.6238C70.7116 12.885 70.3332 13.0977 69.9312 13.2559L67.472 14.2237L74.6239 18.7474L75.8148 17.7807C76.3816 17.3207 76.9947 16.9209 77.6443 16.5879L78.921 15.9334C79.5662 15.6026 80.2808 15.4301 81.0059 15.4301H82.1418C82.4558 15.4301 82.7603 15.5381 83.0041 15.736C83.781 16.3666 83.6405 17.5905 82.7409 18.0286L81.265 18.7474L78.0296 20.5569L84.4559 24.779C85.5038 24.0776 86.6281 23.4976 87.807 23.0502L90.8008 21.914L93.8659 20.5569C92.9143 19.2546 93.4396 17.4048 94.9336 16.797L97.9017 15.5894C98.1456 15.4901 98.4234 15.5222 98.6383 15.6745L98.7422 15.7481C98.9772 15.9146 99.0647 16.2222 98.9524 16.4874L98.9449 16.5051C98.7893 16.8724 99.0298 17.2863 99.426 17.3331C99.9951 17.4003 100.154 18.1518 99.6601 18.4432L99.2126 18.7074C99.1675 18.734 99.1197 18.756 99.0701 18.773L93.8659 20.5569L95.7421 22.7376C96.2035 23.2737 96.1214 24.087 95.5623 24.5202C95.3457 24.688 95.0795 24.779 94.8055 24.779H93.3742C91.7458 24.779 90.2036 25.5113 89.1743 26.7733L88.5871 27.4933L58.927 43.8957C50.6879 48.4521 40.5915 48.0127 32.7794 42.7578L10.0865 27.4933Z" fill="#CF4349"/>
<path d="M53.3683 54.3896L69.6857 45.2865L86.0329 34.5804L92.5357 30.9069C94.7715 29.6439 97.188 28.7316 99.7006 28.2018L103.061 27.4933L102.188 26.1015C101.731 25.3723 101.954 24.4101 102.685 23.9565C102.931 23.8042 103.214 23.7235 103.503 23.7235H105.105H107.353C107.555 23.7235 107.757 23.7572 107.949 23.8233L109.278 24.2812C109.945 24.5109 110.141 25.3603 109.641 25.8582C109.462 26.0362 109.22 26.1362 108.968 26.1362H108.51C107.965 26.1362 107.442 26.3522 107.056 26.7371L106.978 26.8147C106.542 27.2493 105.951 27.4933 105.335 27.4933H103.061C104.493 28.5613 104.225 30.781 102.579 31.4761L95.2282 34.5804L82.6272 42.1199L73.3132 48.8212C72.2587 49.5799 71.1469 50.2556 69.9878 50.8421L57.4745 57.174C56.6805 57.5758 55.7584 57.6418 54.9152 57.3574L53.6005 56.9139C53.0369 56.7237 52.6573 56.1952 52.6573 55.6003C52.6573 55.0977 52.9294 54.6345 53.3683 54.3896Z" fill="#CF4349"/>
<path d="M74.6239 52.5244L59.9467 60.9586C59.2289 61.3711 59.013 62.3066 59.4773 62.9919C59.584 63.1494 59.7211 63.2838 59.8806 63.3874L60.2954 63.6568C61.4677 64.418 62.9594 64.4876 64.1975 63.8388L78.881 56.1434L95.6622 44.1409C96.2803 43.6989 96.9292 43.3018 97.6041 42.9527L113.256 34.8562C113.538 34.7104 113.626 34.3492 113.443 34.09C113.215 33.7665 113.415 33.3165 113.808 33.269L116.126 32.9891C116.49 32.9451 116.834 32.7974 117.117 32.5636L117.489 32.2567C118.371 31.5277 118.32 30.16 117.386 29.4985C116.944 29.1851 116.38 29.0961 115.863 29.2578L114.405 29.7134C113.996 29.8411 113.606 30.0229 113.245 30.2537L112.168 30.9426C111.209 31.5561 110.18 32.0535 109.103 32.4243L108.905 32.4925C108.076 32.7781 107.271 33.131 106.499 33.5476L92.8442 40.9136L74.6239 52.5244Z" fill="#CF4349"/>
<path d="M66.5402 72.0551L66.1735 71.7895C65.8126 71.528 65.5989 71.1093 65.5989 70.6635C65.5989 70.1692 65.8614 69.712 66.2883 69.4628L88.5871 56.4449L103.061 45.4373L112.585 38.9719C113.046 38.6584 113.532 38.3819 114.037 38.145L115.54 37.4406C115.957 37.2451 116.412 37.1438 116.872 37.1438H117.016C117.247 37.1438 117.477 37.1799 117.697 37.2508L118.609 37.5444C118.984 37.6651 119.238 38.014 119.238 38.408C119.238 38.7435 119.053 39.0517 118.757 39.2092L112.474 42.5473C111.314 43.1634 110.257 43.955 109.339 44.8942L105.065 49.2677C103.733 50.6302 102.251 51.8366 100.647 52.8636L72.5046 70.8768C71.9898 71.2063 71.4342 71.4672 70.8518 71.6528L68.5683 72.3808C67.8789 72.6005 67.1261 72.4797 66.5402 72.0551Z" fill="#CF4349"/>
<path d="M71.3456 8.1823L70.6143 7.3729C70.5646 7.31787 70.5371 7.24635 70.5371 7.1722C70.5371 7.0581 70.6019 6.95392 70.7043 6.90356L74.4578 5.05702C74.9078 4.83563 75.3802 4.66311 75.867 4.54241L79.3918 3.66845L80.845 3.51705C81.7896 3.41865 82.7436 3.56917 83.612 3.95367L84.4913 4.34299C84.6095 4.39534 84.7154 4.47199 84.8021 4.56794C85.3104 5.13058 84.96 6.0321 84.2051 6.10371L81.6731 6.34394C81.4033 6.36954 81.1406 6.44479 80.8982 6.56589L76.192 8.91672C75.1878 9.41836 74.0257 9.50139 72.9603 9.14762L72.6834 9.05566C72.1695 8.88501 71.7086 8.58411 71.3456 8.1823Z" fill="#CF4349"/>
<path d="M84.4028 14.9177L83.2304 13.9949C83.169 13.9465 83.1117 13.893 83.0593 13.835C82.4268 13.1348 82.6638 12.0211 83.5265 11.6391L86.3778 10.3767C86.7136 10.228 87.0698 10.131 87.4345 10.0889L90.2498 9.76369C90.6119 9.72187 90.9786 9.76754 91.3194 9.89684L91.4589 9.9498C91.8064 10.0817 92.1047 10.3175 92.3131 10.6252C92.9446 11.5571 92.5786 12.8334 91.5493 13.2892L91.4994 13.3113C91.2633 13.4158 91.008 13.4698 90.7499 13.4698H89.0197C88.6202 13.4698 88.223 13.5311 87.842 13.6516L86.413 14.1035C86.173 14.1794 85.9811 14.3613 85.8924 14.5969C85.772 14.9167 85.4661 15.1285 85.1243 15.1285H85.0114C84.7906 15.1285 84.5763 15.0542 84.4028 14.9177Z" fill="#CF4349"/>
<path d="M76.6673 96.7058L6.83257 30.8519C6.18827 30.2443 5.33615 29.9059 4.45055 29.9059H3.87222C2.97723 29.9059 2.1516 29.4239 1.71156 28.6446V28.6446C1.30521 27.9249 1.28384 27.0502 1.65457 26.3116L1.69277 26.2354C2.14087 25.3426 3.05433 24.779 4.05328 24.779H4.27091C5.23387 24.779 6.12221 25.2976 6.59568 26.1362V26.1362C7.06915 26.9747 7.95749 27.4933 8.92046 27.4933H10.0865M10.0865 27.4933L28.3068 18.7474L43.9438 9.69894C44.9836 9.09729 46.0651 8.57109 47.1803 8.12439L52.6573 5.9303M10.0865 27.4933L32.7794 42.7578C40.5915 48.0127 50.6879 48.4521 58.927 43.8957L88.5871 27.4933M52.6573 5.9303L58.4813 3.79191C59.218 3.52143 60.035 3.57727 60.728 3.94548L61.6335 4.4266C61.9779 4.6096 62.1932 4.96776 62.1932 5.35777V5.35777C62.1932 5.71484 62.0125 6.04764 61.713 6.24211L60.5405 7.00352C59.9521 7.38563 59.2656 7.58899 58.564 7.58899H56.2333M52.6573 5.9303L56.2333 7.58899M56.2333 7.58899L63.5555 12.4143M63.5555 12.4143L64.3432 11.5423C65.1427 10.6574 66.2794 10.1524 67.472 10.1524V10.1524H69.1437C69.443 10.1524 69.6857 9.90975 69.6857 9.61041V9.61041C69.6857 9.2231 70.0802 8.96078 70.4373 9.1106L72.3638 9.91865C72.7014 10.0603 72.9211 10.3906 72.9211 10.7568V10.7568C72.9211 11.041 72.7881 11.3089 72.5617 11.4807L71.0557 12.6238C70.7116 12.885 70.3332 13.0977 69.9312 13.2559L67.472 14.2237M63.5555 12.4143L67.472 14.2237M67.472 14.2237L74.6239 18.7474M74.6239 18.7474L75.8148 17.7807C76.3816 17.3207 76.9947 16.9209 77.6443 16.5879L78.921 15.9334C79.5662 15.6026 80.2808 15.4301 81.0059 15.4301H82.1418C82.4558 15.4301 82.7603 15.5381 83.0041 15.736V15.736C83.781 16.3666 83.6405 17.5905 82.7409 18.0286L81.265 18.7474L78.0296 20.5569M74.6239 18.7474L78.0296 20.5569M78.0296 20.5569L84.4559 24.779M88.5871 27.4933L89.1743 26.7733C90.2036 25.5113 91.7458 24.779 93.3742 24.779H94.8055C95.0795 24.779 95.3457 24.688 95.5623 24.5202V24.5202C96.1214 24.0869 96.2034 23.2737 95.7421 22.7376L93.8659 20.5569M88.5871 27.4933L84.4559 24.779M93.8659 20.5569L90.8008 21.914L87.807 23.0502C86.6281 23.4976 85.5038 24.0776 84.4559 24.779V24.779M93.8659 20.5569V20.5569C92.9143 19.2546 93.4396 17.4048 94.9336 16.797L97.9017 15.5894C98.1456 15.4901 98.4234 15.5222 98.6383 15.6745L98.7422 15.7481C98.9772 15.9146 99.0647 16.2222 98.9524 16.4874L98.9449 16.5051C98.7893 16.8724 99.0298 17.2863 99.426 17.3331V17.3331C99.9951 17.4003 100.154 18.1518 99.6601 18.4432L99.2126 18.7074C99.1675 18.734 99.1197 18.756 99.0701 18.773L93.8659 20.5569ZM103.061 27.4933L99.7006 28.2018C97.188 28.7316 94.7715 29.6439 92.5357 30.9069L86.0329 34.5804L69.6857 45.2865L53.3683 54.3896C52.9294 54.6345 52.6573 55.0977 52.6573 55.6003V55.6003C52.6573 56.1952 53.0369 56.7238 53.6005 56.9139L54.9152 57.3574C55.7584 57.6418 56.6805 57.5758 57.4745 57.174L69.9878 50.8421C71.1469 50.2556 72.2587 49.5799 73.3132 48.8212L82.6272 42.1199L95.2282 34.5804L102.579 31.4761C104.225 30.781 104.493 28.5613 103.061 27.4933V27.4933ZM103.061 27.4933L102.188 26.1015C101.731 25.3723 101.954 24.4101 102.685 23.9565V23.9565C102.931 23.8042 103.214 23.7235 103.503 23.7235H105.105H107.353C107.555 23.7235 107.757 23.7572 107.949 23.8233L109.278 24.2812C109.945 24.5109 110.141 25.3603 109.641 25.8582V25.8582C109.462 26.0362 109.22 26.1362 108.968 26.1362H108.51C107.965 26.1362 107.442 26.3522 107.056 26.7371L106.978 26.8147C106.542 27.2493 105.951 27.4933 105.335 27.4933H103.061ZM14.8544 33.3741L14.003 32.9217M74.6239 52.5244L59.9467 60.9586C59.2289 61.3711 59.013 62.3066 59.4773 62.9919V62.9919C59.584 63.1494 59.7211 63.2838 59.8806 63.3874L60.2954 63.6568C61.4677 64.418 62.9594 64.4876 64.1975 63.8388L78.881 56.1434L95.6622 44.1409C96.2803 43.6989 96.9292 43.3018 97.6041 42.9527L113.256 34.8562C113.538 34.7104 113.626 34.3492 113.443 34.09V34.09C113.215 33.7665 113.415 33.3165 113.808 33.269L116.126 32.9891C116.49 32.9451 116.834 32.7974 117.117 32.5636L117.489 32.2567C118.371 31.5277 118.32 30.16 117.386 29.4985V29.4985C116.944 29.1851 116.38 29.0961 115.863 29.2578L114.405 29.7134C113.996 29.8411 113.606 30.0229 113.245 30.2537L112.168 30.9426C111.209 31.5561 110.18 32.0535 109.103 32.4243L108.905 32.4925C108.076 32.7781 107.271 33.131 106.499 33.5476L92.8442 40.9136L74.6239 52.5244ZM103.061 45.4373L112.585 38.9719C113.046 38.6584 113.532 38.3819 114.037 38.145L115.54 37.4406C115.957 37.2451 116.412 37.1438 116.872 37.1438H117.016C117.247 37.1438 117.477 37.1799 117.697 37.2508L118.609 37.5444C118.984 37.6651 119.238 38.014 119.238 38.408V38.408C119.238 38.7435 119.053 39.0517 118.757 39.2092L112.474 42.5473C111.314 43.1634 110.257 43.955 109.339 44.8942L105.065 49.2677C103.733 50.6302 102.251 51.8366 100.647 52.8636L72.5046 70.8768C71.9898 71.2063 71.4342 71.4672 70.8518 71.6528L68.5683 72.3808C67.8789 72.6005 67.1261 72.4797 66.5402 72.0551L66.1735 71.7895C65.8126 71.528 65.5989 71.1093 65.5989 70.6635V70.6635C65.5989 70.1692 65.8614 69.712 66.2883 69.4628L88.5871 56.4449L103.061 45.4373ZM79.3918 3.66845L80.845 3.51705C81.7897 3.41865 82.7436 3.56917 83.612 3.95367L84.4913 4.34299C84.6095 4.39534 84.7154 4.47199 84.8021 4.56794V4.56794C85.3104 5.13058 84.96 6.0321 84.2051 6.10371L81.6731 6.34394C81.4033 6.36954 81.1406 6.44479 80.8982 6.56589L76.192 8.91672C75.1878 9.41836 74.0257 9.50139 72.9603 9.14762L72.6834 9.05566C72.1695 8.88501 71.7086 8.58411 71.3456 8.1823L70.6143 7.3729C70.5646 7.31787 70.5371 7.24635 70.5371 7.1722V7.1722C70.5371 7.0581 70.6019 6.95392 70.7043 6.90356L74.4578 5.05702C74.9078 4.83563 75.3802 4.66311 75.867 4.54241L79.3918 3.66845ZM91.3194 9.89684L91.4589 9.9498C91.8064 10.0817 92.1047 10.3175 92.3131 10.6252V10.6252C92.9446 11.5571 92.5786 12.8334 91.5493 13.2892L91.4994 13.3113C91.2633 13.4158 91.008 13.4698 90.7499 13.4698H89.0197C88.6202 13.4698 88.223 13.5311 87.842 13.6516L86.413 14.1035C86.173 14.1794 85.9811 14.3613 85.8924 14.5969V14.5969C85.772 14.9167 85.4661 15.1285 85.1243 15.1285H85.0114C84.7906 15.1285 84.5763 15.0542 84.4028 14.9177L83.2304 13.9949C83.169 13.9465 83.1117 13.893 83.0593 13.835V13.835C82.4268 13.1348 82.6638 12.0211 83.5265 11.6391L86.3778 10.3767C86.7136 10.228 87.0698 10.131 87.4345 10.0889L90.2498 9.76369C90.6119 9.72187 90.9787 9.76754 91.3194 9.89684Z" stroke="#CF4349"/>
<g filter="url(#filter0_d_31_207)">
<path d="M92.42 9.21189L92.3516 9.12112C91.6143 8.1418 91.8895 6.73932 92.9421 6.11115L98.2209 2.96094C98.6089 2.72937 99.0169 2.53296 99.4399 2.37404L104.071 0.634303C104.304 0.546708 104.551 0.501836 104.8 0.501836C105.22 0.501836 105.63 0.629425 105.976 0.867711L108.415 2.5473C108.478 2.59065 108.532 2.64537 108.575 2.70864C108.801 3.04163 108.651 3.49801 108.272 3.6323L108.17 3.66843L106.043 4.29611C104.065 4.88002 102.179 5.739 100.44 6.84785L99.5998 7.38327C99.0704 7.7208 98.5123 8.01113 97.9321 8.25092L94.338 9.73613C93.9278 9.90568 93.466 9.89992 93.06 9.72019C92.8068 9.60808 92.5865 9.43311 92.42 9.21189Z" fill="#CF4349"/>
<path d="M99.8038 15.2293L99.4832 15.1002C99.0549 14.9278 98.7307 14.5667 98.6052 14.1224C98.4214 13.4711 98.6993 12.7777 99.282 12.4337L100.934 11.4584C101.216 11.2921 101.517 11.1611 101.831 11.0684L103.944 10.4446C104.944 10.1497 105.92 9.78337 106.867 9.34859L109.211 8.27239C109.763 8.01895 110.346 7.84014 110.946 7.74066L112.285 7.51828C112.601 7.46582 112.925 7.49805 113.225 7.61171L113.517 7.7225C113.799 7.8297 114.024 8.04916 114.139 8.32866C114.399 8.96229 114.019 9.67627 113.348 9.81341L112.591 9.96801C112.482 9.99035 112.375 10.0232 112.272 10.0661L109.532 11.2079L106.297 13.0174L101.534 15.1901C100.987 15.4396 100.362 15.4537 99.8038 15.2293Z" fill="#CF4349"/>
<path d="M106.565 18.8982H105.641C105.345 18.8982 105.105 19.1385 105.105 19.4349C105.105 19.5743 105.159 19.7081 105.256 19.8082L105.651 20.2171C105.959 20.5347 106.365 20.7379 106.804 20.7934L107.327 20.8596C108.093 20.9565 108.87 20.7929 109.533 20.3949L113.278 18.1443L118.855 15.3383C119.757 14.8846 119.894 13.6536 119.114 13.0126C118.675 12.651 118.059 12.5926 117.559 12.865L113.959 14.8269L110.505 16.2385C109.862 16.5014 109.273 16.8818 108.769 17.3602L107.571 18.4972C107.299 18.7547 106.939 18.8982 106.565 18.8982Z" fill="#CF4349"/>
<path d="M113.3 46.2377L116.639 41.8027C116.989 41.3378 117.537 41.0643 118.119 41.0643H118.179C118.317 41.0643 118.454 41.0841 118.586 41.1231C119.507 41.3949 120.43 40.7048 120.43 39.7446V38.5212C120.43 37.6705 120.89 36.8861 121.632 36.47L124.65 34.7771C125.188 34.4752 125.855 34.5261 126.341 34.906C127.27 35.6319 127.064 37.0917 125.97 37.532L125.248 37.8229C124.882 37.97 124.569 38.2228 124.348 38.5489L123.303 40.0915C122.866 40.7366 122.337 41.3149 121.734 41.8081L121.184 42.2577C120.687 42.664 120.111 42.9631 119.493 43.136C118.05 43.5394 116.89 44.6127 116.376 46.0196L115.427 48.6167C115.357 48.8077 115.322 49.0095 115.322 49.2128V49.6152C115.322 50.8784 113.881 51.6011 112.869 50.846C112.391 50.4899 112.163 49.8899 112.283 49.3065L112.589 47.8126C112.707 47.2414 112.949 46.7035 113.3 46.2377Z" fill="#CF4349"/>
<path d="M118.8 52.1577L118.72 52.0632C117.964 51.1711 118.293 49.802 119.371 49.3497L120.08 49.0521C120.312 48.955 120.526 48.8205 120.714 48.654L128.443 41.8102C128.998 41.3183 129.649 40.9469 130.356 40.7195L130.748 40.5933C131.02 40.5057 131.303 40.4612 131.589 40.4612H132.302C132.656 40.4612 132.993 40.6172 133.222 40.8879C133.603 41.3378 133.603 41.9972 133.222 42.4471C132.993 42.7178 132.656 42.8738 132.302 42.8738H131.999C131.465 42.8738 130.956 43.1041 130.603 43.5059L128.161 46.2854C127.776 46.7244 127.353 47.1289 126.897 47.4942L120.831 52.3539C120.572 52.5618 120.249 52.6752 119.916 52.6752C119.486 52.6752 119.078 52.4859 118.8 52.1577Z" fill="#CF4349"/>
<path d="M135.585 43.3262L135.347 43.6423C135.281 43.7307 135.245 43.8384 135.245 43.9491C135.245 44.3422 135.67 44.5876 136.011 44.3907L139.672 42.2707L141.974 40.8316C142.367 40.5863 142.797 40.408 143.248 40.3039L146.009 39.6661C146.287 39.6019 146.483 39.3544 146.483 39.0691C146.483 38.8173 146.329 38.5911 146.095 38.4988L144.951 38.0485C143.416 37.4659 141.72 37.47 140.187 38.06L139.169 38.452C138.824 38.5847 138.495 38.7548 138.187 38.9592L137.164 39.639C136.391 40.1525 135.926 41.0191 135.926 41.9473V42.3076C135.926 42.6751 135.806 43.0326 135.585 43.3262Z" fill="#CF4349"/>
<path d="M130.972 36.0459L130.796 35.5781C130.52 34.8467 130.859 34.027 131.57 33.7026L135.309 31.9967C135.719 31.8098 136.149 31.6705 136.591 31.5816L139.09 31.0786C139.464 31.0034 139.852 31.0752 140.174 31.279L140.439 31.4465C140.704 31.6139 140.864 31.9051 140.864 32.2182C140.864 32.6328 140.585 32.9954 140.184 33.1011L133.54 34.8536C133.11 34.9669 132.755 35.2678 132.572 35.6727L132.383 36.0913C132.259 36.3648 131.987 36.5406 131.687 36.5406C131.369 36.5406 131.084 36.3436 130.972 36.0459Z" fill="#CF4349"/>
<path d="M125.539 27.9456L131.105 25.1653C131.719 24.8586 132.465 25.0576 132.845 25.6293C133.356 26.3997 132.966 27.4452 132.075 27.6919L131.436 27.8688C131.252 27.9197 131.077 27.9989 130.917 28.1036L126.8 30.8044C126.64 30.9089 126.473 31.0002 126.299 31.0773L125.149 31.5861C124.56 31.8471 123.871 31.7289 123.403 31.2862C122.563 30.4933 122.814 29.0994 123.877 28.6491L125.539 27.9456Z" fill="#CF4349"/>
<path d="M119.238 24.6282L116.296 26.5539C115.721 26.9305 114.965 26.8755 114.45 26.4196C113.561 25.6325 113.873 24.1763 115.006 23.8222L115.165 23.7726C115.269 23.7399 115.37 23.6968 115.466 23.6438L120.209 21.0183C120.582 20.8121 120.926 20.5578 121.232 20.262L122.075 19.4476C122.44 19.0952 122.927 18.8982 123.435 18.8982H123.561C123.957 18.8982 124.34 19.0434 124.637 19.3063C125.639 20.1938 125.197 21.8445 123.886 22.1126L123.036 22.2862C122.777 22.3392 122.531 22.4416 122.31 22.588L119.238 24.6282Z" fill="#CF4349"/>
<path d="M92.42 9.21189L92.3516 9.12112C91.6143 8.1418 91.8895 6.73932 92.9421 6.11115L98.2209 2.96094C98.6089 2.72937 99.0169 2.53296 99.4399 2.37404L104.071 0.634303C104.304 0.546708 104.551 0.501836 104.8 0.501836C105.22 0.501836 105.63 0.629425 105.976 0.867711L108.415 2.5473C108.478 2.59065 108.532 2.64537 108.575 2.70864C108.801 3.04163 108.651 3.49801 108.272 3.6323L108.17 3.66843L106.043 4.29611C104.065 4.88002 102.179 5.739 100.44 6.84785L99.5998 7.38327C99.0704 7.7208 98.5123 8.01113 97.9321 8.25092L94.338 9.73613C93.9278 9.90568 93.466 9.89992 93.06 9.72019C92.8068 9.60808 92.5865 9.43311 92.42 9.21189Z" stroke="#CF4349"/>
<path d="M99.8038 15.2293L99.4832 15.1002C99.0549 14.9278 98.7307 14.5667 98.6052 14.1224C98.4214 13.4711 98.6993 12.7777 99.282 12.4337L100.934 11.4584C101.216 11.2921 101.517 11.1611 101.831 11.0684L103.944 10.4446C104.944 10.1497 105.92 9.78337 106.867 9.34859L109.211 8.27239C109.763 8.01895 110.346 7.84014 110.946 7.74066L112.285 7.51828C112.601 7.46582 112.925 7.49805 113.225 7.61171L113.517 7.7225C113.799 7.8297 114.024 8.04916 114.139 8.32866C114.399 8.96229 114.019 9.67627 113.348 9.81341L112.591 9.96801C112.482 9.99035 112.375 10.0232 112.272 10.0661L109.532 11.2079L106.297 13.0174L101.534 15.1901C100.987 15.4396 100.362 15.4537 99.8038 15.2293Z" stroke="#CF4349"/>
<path d="M106.565 18.8982H105.641C105.345 18.8982 105.105 19.1385 105.105 19.4349C105.105 19.5743 105.159 19.7081 105.256 19.8082L105.651 20.2171C105.959 20.5347 106.365 20.7379 106.804 20.7934L107.327 20.8596C108.093 20.9565 108.87 20.7929 109.533 20.3949L113.278 18.1443L118.855 15.3383C119.757 14.8846 119.894 13.6536 119.114 13.0126C118.675 12.651 118.059 12.5926 117.559 12.865L113.959 14.8269L110.505 16.2385C109.862 16.5014 109.273 16.8818 108.769 17.3602L107.571 18.4972C107.299 18.7547 106.939 18.8982 106.565 18.8982Z" stroke="#CF4349"/>
<path d="M113.3 46.2377L116.639 41.8027C116.989 41.3378 117.537 41.0643 118.119 41.0643H118.179C118.317 41.0643 118.454 41.0841 118.586 41.1231C119.507 41.3949 120.43 40.7048 120.43 39.7446V38.5212C120.43 37.6705 120.89 36.8861 121.632 36.47L124.65 34.7771C125.188 34.4752 125.855 34.5261 126.341 34.906C127.27 35.6319 127.064 37.0917 125.97 37.532L125.248 37.8229C124.882 37.97 124.569 38.2228 124.348 38.5489L123.303 40.0915C122.866 40.7366 122.337 41.3149 121.734 41.8081L121.184 42.2577C120.687 42.664 120.111 42.9631 119.493 43.136C118.05 43.5394 116.89 44.6127 116.376 46.0196L115.427 48.6167C115.357 48.8077 115.322 49.0095 115.322 49.2128V49.6152C115.322 50.8784 113.881 51.6011 112.869 50.846C112.391 50.4899 112.163 49.8899 112.283 49.3065L112.589 47.8126C112.707 47.2414 112.949 46.7035 113.3 46.2377Z" stroke="#CF4349"/>
<path d="M118.8 52.1577L118.72 52.0632C117.964 51.1711 118.293 49.802 119.371 49.3497L120.08 49.0521C120.312 48.955 120.526 48.8205 120.714 48.654L128.443 41.8102C128.998 41.3183 129.649 40.9469 130.356 40.7195L130.748 40.5933C131.02 40.5057 131.303 40.4612 131.589 40.4612H132.302C132.656 40.4612 132.993 40.6172 133.222 40.8879C133.603 41.3378 133.603 41.9972 133.222 42.4471C132.993 42.7178 132.656 42.8738 132.302 42.8738H131.999C131.465 42.8738 130.956 43.1041 130.603 43.5059L128.161 46.2854C127.776 46.7244 127.353 47.1289 126.897 47.4942L120.831 52.3539C120.572 52.5618 120.249 52.6752 119.916 52.6752C119.486 52.6752 119.078 52.4859 118.8 52.1577Z" stroke="#CF4349"/>
<path d="M135.585 43.3262L135.347 43.6423C135.281 43.7307 135.245 43.8384 135.245 43.9491C135.245 44.3422 135.67 44.5876 136.011 44.3907L139.672 42.2707L141.974 40.8316C142.367 40.5863 142.797 40.408 143.248 40.3039L146.009 39.6661C146.287 39.6019 146.483 39.3544 146.483 39.0691C146.483 38.8173 146.329 38.5911 146.095 38.4988L144.951 38.0485C143.416 37.4659 141.72 37.47 140.187 38.06L139.169 38.452C138.824 38.5847 138.495 38.7548 138.187 38.9592L137.164 39.639C136.391 40.1525 135.926 41.0191 135.926 41.9473V42.3076C135.926 42.6751 135.806 43.0326 135.585 43.3262Z" stroke="#CF4349"/>
<path d="M130.972 36.0459L130.796 35.5781C130.52 34.8467 130.859 34.027 131.57 33.7026L135.309 31.9967C135.719 31.8098 136.149 31.6705 136.591 31.5816L139.09 31.0786C139.464 31.0034 139.852 31.0752 140.174 31.279L140.439 31.4465C140.704 31.6139 140.864 31.9051 140.864 32.2182C140.864 32.6328 140.585 32.9954 140.184 33.1011L133.54 34.8536C133.11 34.9669 132.755 35.2678 132.572 35.6727L132.383 36.0913C132.259 36.3648 131.987 36.5406 131.687 36.5406C131.369 36.5406 131.084 36.3436 130.972 36.0459Z" stroke="#CF4349"/>
<path d="M125.539 27.9456L131.105 25.1653C131.719 24.8586 132.465 25.0576 132.845 25.6293C133.356 26.3997 132.966 27.4452 132.075 27.6919L131.436 27.8688C131.252 27.9197 131.077 27.9989 130.917 28.1036L126.8 30.8044C126.64 30.9089 126.473 31.0002 126.299 31.0773L125.149 31.5861C124.56 31.8471 123.871 31.7289 123.403 31.2862C122.563 30.4933 122.814 29.0994 123.877 28.6491L125.539 27.9456Z" stroke="#CF4349"/>
<path d="M119.238 24.6282L116.296 26.5539C115.721 26.9305 114.965 26.8755 114.45 26.4196C113.561 25.6325 113.873 24.1763 115.006 23.8222L115.165 23.7726C115.269 23.7399 115.37 23.6968 115.466 23.6438L120.209 21.0183C120.582 20.8121 120.926 20.5578 121.232 20.262L122.075 19.4476C122.44 19.0952 122.927 18.8982 123.435 18.8982H123.561C123.957 18.8982 124.34 19.0434 124.637 19.3063C125.639 20.1938 125.197 21.8445 123.886 22.1126L123.036 22.2862C122.777 22.3392 122.531 22.4416 122.31 22.588L119.238 24.6282Z" stroke="#CF4349"/>
</g>
<path d="M79.0799 94.7222L76.4262 96.7058L5.83811 29.7597H2.65368L1.06147 27.2803L2.65368 24.8008H5.83811L7.43032 27.2803H9.55327L14.8606 31.7433L35.0287 45.1325L52.543 58.0259L64.2192 71.4151L67.3278 78.8535L79.0799 88.7715V90.2592L27.0676 46.6202L79.0799 94.7222Z" fill="black"/>
<path d="M14.8606 31.7433L9.55327 27.2803H7.43032L5.83811 24.8008H2.65368L1.06147 27.2803L2.65368 29.7597H5.83811L76.4262 96.7058L79.0799 94.7222L27.0676 46.6202L79.0799 90.2592V88.7715L67.3278 78.8535M14.8606 31.7433L13.2684 33.231L63.6885 75.7822M14.8606 31.7433L35.0287 45.1325L52.543 58.0259L64.2192 71.4151L67.3278 78.8535M67.3278 78.8535L63.6885 75.7822M63.6885 75.7822L62.627 72.9028L51.4815 59.5136L14.3299 33.231" stroke="black"/>
<path d="M61.9813 72.0862L62.4081 73.2814C62.4991 73.5365 62.2623 73.7871 62.0025 73.7105C61.9569 73.697 61.9148 73.674 61.8789 73.6428L55.3438 67.9643L49.9103 63.3632L40.1994 54.9789L27.7254 44.7561C27.645 44.6902 27.5983 44.5917 27.5983 44.4878C27.5983 44.2961 27.7537 44.1408 27.9453 44.1408H27.9536C28.0235 44.1408 28.0918 44.1614 28.15 44.2L28.5232 44.4475L33.263 47.3104L41.7023 52.6273L49.9103 58.6598L56.153 64.4879L59.1588 68.1688L61.849 71.8369C61.905 71.9132 61.9495 71.9971 61.9813 72.0862Z" fill="white" stroke="white"/>
<path d="M33.9672 44.1408L10.084 26.7844L28.6598 18.3541L35.0287 14.3869L45.1127 8.43618L53.6045 5.4608L57.8504 8.43618L63.1577 11.9075L68.4651 14.3869L74.3032 18.3541L79.0799 20.8336L84.3872 24.3049L89.1639 27.7762L87.5717 28.768L65.8114 40.6695L55.1967 46.1243L48.2971 46.6202H42.459L33.9672 44.1408Z" fill="#3C528E" stroke="#3C528E"/>
<ellipse cx="4.77664" cy="27.2803" rx="4.77664" ry="3.96717" fill="black"/>
<path d="M15.8761 27.4932L16.2202 28.3268H17.3337L16.4329 28.8419L16.7769 29.6755L15.8761 29.1603L14.9753 29.6755L15.3194 28.8419L14.4186 28.3268H15.532L15.8761 27.4932Z" fill="white"/>
<path d="M22.6875 23.8743L23.0316 24.7078H24.145L23.2442 25.223L23.5883 26.0565L22.6875 25.5414L21.7867 26.0565L22.1308 25.223L21.2299 24.7078H22.3434L22.6875 23.8743Z" fill="white"/>
<path d="M29.8394 19.6522L30.1834 20.4857H31.2969L30.3961 21.0009L30.7402 21.8344L29.8394 21.3192L28.9386 21.8344L29.2826 21.0009L28.3818 20.4857H29.4953L29.8394 19.6522Z" fill="white"/>
<path d="M37.3318 15.7316L37.6759 16.5652H38.7894L37.8886 17.0803L38.2327 17.9139L37.3318 17.3987L36.431 17.9139L36.7751 17.0803L35.8743 16.5652H36.9878L37.3318 15.7316Z" fill="white"/>
<path d="M46.1866 11.2079L46.5307 12.0415H47.6441L46.7433 12.5566L47.0874 13.3902L46.1866 12.875L45.2858 13.3902L45.6298 12.5566L44.729 12.0415H45.8425L46.1866 11.2079Z" fill="white"/>
<path d="M51.9762 7.58898L52.3203 8.42253H53.4338L52.5329 8.93769L52.877 9.77123L51.9762 9.25607L51.0754 9.77123L51.4195 8.93769L50.5187 8.42253H51.6321L51.9762 7.58898Z" fill="white"/>
<path d="M51.9762 13.0174L52.3203 13.8509H53.4338L52.5329 14.3661L52.877 15.1996L51.9762 14.6845L51.0754 15.1996L51.4195 14.3661L50.5187 13.8509H51.6321L51.9762 13.0174Z" fill="white"/>
<path d="M46.1866 16.0332L46.5307 16.8667H47.6441L46.7433 17.3819L47.0874 18.2155L46.1866 17.7003L45.2858 18.2155L45.6298 17.3819L44.729 16.8667H45.8425L46.1866 16.0332Z" fill="white"/>
<path d="M37.3318 19.9537L37.6759 20.7873H38.7894L37.8886 21.3024L38.2327 22.136L37.3318 21.6208L36.431 22.136L36.7751 21.3024L35.8743 20.7873H36.9878L37.3318 19.9537Z" fill="white"/>
<path d="M23.3686 28.0964L23.7127 28.9299H24.8261L23.9253 29.4451L24.2694 30.2787L23.3686 29.7635L22.4678 30.2787L22.8118 29.4451L21.911 28.9299H23.0245L23.3686 28.0964Z" fill="white"/>
<path d="M30.5205 24.4774L30.8646 25.311H31.9781L31.0772 25.8262L31.4213 26.6597L30.5205 26.1445L29.6197 26.6597L29.9638 25.8262L29.063 25.311H30.1764L30.5205 24.4774Z" fill="white"/>
<path d="M23.3686 32.9217L23.7127 33.7552H24.8261L23.9253 34.2704L24.2694 35.1039L23.3686 34.5888L22.4678 35.1039L22.8118 34.2704L21.911 33.7552H23.0245L23.3686 32.9217Z" fill="white"/>
<path d="M31.2016 37.4454L31.5457 38.2789H32.6592L31.7584 38.7941L32.1024 39.6276L31.2016 39.1125L30.3008 39.6276L30.6449 38.7941L29.7441 38.2789H30.8575L31.2016 37.4454Z" fill="white"/>
<path d="M31.2016 32.6201L31.5457 33.4537H32.6592L31.7584 33.9688L32.1024 34.8024L31.2016 34.2872L30.3008 34.8024L30.6449 33.9688L29.7441 33.4537H30.8575L31.2016 32.6201Z" fill="white"/>
<path d="M31.2016 28.3979L31.5457 29.2315H32.6592L31.7584 29.7467L32.1024 30.5802L31.2016 30.065L30.3008 30.5802L30.6449 29.7467L29.7441 29.2315H30.8575L31.2016 28.3979Z" fill="white"/>
<path d="M37.6724 24.4774L38.0165 25.311H39.1299L38.2291 25.8262L38.5732 26.6597L37.6724 26.1445L36.7716 26.6597L37.1157 25.8262L36.2149 25.311H37.3283L37.6724 24.4774Z" fill="white"/>
<path d="M38.3535 28.6996L38.6976 29.5331H39.8111L38.9103 30.0483L39.2543 30.8818L38.3535 30.3667L37.4527 30.8818L37.7968 30.0483L36.896 29.5331H38.0094L38.3535 28.6996Z" fill="white"/>
<path d="M38.3535 33.5249L38.6976 34.3584H39.8111L38.9103 34.8736L39.2543 35.7071L38.3535 35.192L37.4527 35.7071L37.7968 34.8736L36.896 34.3584H38.0094L38.3535 33.5249Z" fill="white"/>
<path d="M39.0347 38.0485L39.3787 38.8821H40.4922L39.5914 39.3972L39.9355 40.2308L39.0347 39.7156L38.1339 40.2308L38.4779 39.3972L37.5771 38.8821H38.6906L39.0347 38.0485Z" fill="white"/>
<path d="M39.0347 42.2707L39.3787 43.1042H40.4922L39.5914 43.6194L39.9355 44.4529L39.0347 43.9377L38.1339 44.4529L38.4779 43.6194L37.5771 43.1042H38.6906L39.0347 42.2707Z" fill="white"/>
<path d="M46.1866 46.4928L46.5307 47.3263H47.6441L46.7433 47.8415L47.0874 48.675L46.1866 48.1599L45.2858 48.675L45.6298 47.8415L44.729 47.3263H45.8425L46.1866 46.4928Z" fill="white"/>
<path d="M46.1866 41.9691L46.5307 42.8026H47.6441L46.7433 43.3178L47.0874 44.1513L46.1866 43.6362L45.2858 44.1513L45.6298 43.3178L44.729 42.8026H45.8425L46.1866 41.9691Z" fill="white"/>
<path d="M46.1866 38.3501L46.5307 39.1837H47.6441L46.7433 39.6988L47.0874 40.5324L46.1866 40.0172L45.2858 40.5324L45.6298 39.6988L44.729 39.1837H45.8425L46.1866 38.3501Z" fill="white"/>
<path d="M46.1866 33.5249L46.5307 34.3584H47.6441L46.7433 34.8736L47.0874 35.7071L46.1866 35.192L45.2858 35.7071L45.6298 34.8736L44.729 34.3584H45.8425L46.1866 33.5249Z" fill="white"/>
<path d="M46.1866 29.3027L46.5307 30.1363H47.6441L46.7433 30.6514L47.0874 31.485L46.1866 30.9698L45.2858 31.485L45.6298 30.6514L44.729 30.1363H45.8425L46.1866 29.3027Z" fill="white"/>
<path d="M46.1866 25.0806L46.5307 25.9142H47.6441L46.7433 26.4293L47.0874 27.2629L46.1866 26.7477L45.2858 27.2629L45.6298 26.4293L44.729 25.9142H45.8425L46.1866 25.0806Z" fill="white"/>
<path d="M46.1866 20.2553L46.5307 21.0889H47.6441L46.7433 21.604L47.0874 22.4376L46.1866 21.9224L45.2858 22.4376L45.6298 21.604L44.729 21.0889H45.8425L46.1866 20.2553Z" fill="white"/>
<path d="M51.9762 16.6364L52.3203 17.4699H53.4338L52.5329 17.9851L52.877 18.8186L51.9762 18.3035L51.0754 18.8186L51.4195 17.9851L50.5187 17.4699H51.6321L51.9762 16.6364Z" fill="white"/>
<path d="M52.3168 21.1601L52.6609 21.9936H53.7743L52.8735 22.5088L53.2176 23.3423L52.3168 22.8272L51.416 23.3423L51.76 22.5088L50.8592 21.9936H51.9727L52.3168 21.1601Z" fill="white"/>
<path d="M52.3168 25.6838L52.6609 26.5173H53.7743L52.8735 27.0325L53.2176 27.866L52.3168 27.3509L51.416 27.866L51.76 27.0325L50.8592 26.5173H51.9727L52.3168 25.6838Z" fill="white"/>
<path d="M52.9979 29.6043L53.342 30.4378H54.4554L53.5546 30.953L53.8987 31.7865L52.9979 31.2714L52.0971 31.7865L52.4412 30.953L51.5404 30.4378H52.6538L52.9979 29.6043Z" fill="white"/>
<path d="M52.9979 34.128L53.342 34.9616H54.4554L53.5546 35.4767L53.8987 36.3103L52.9979 35.7951L52.0971 36.3103L52.4412 35.4767L51.5404 34.9616H52.6538L52.9979 34.128Z" fill="white"/>
<path d="M53.3385 38.3501L53.6826 39.1837H54.796L53.8952 39.6988L54.2393 40.5324L53.3385 40.0172L52.4377 40.5324L52.7818 39.6988L51.8809 39.1837H52.9944L53.3385 38.3501Z" fill="white"/>
<path d="M53.679 42.8738L54.0231 43.7074H55.1366L54.2358 44.2225L54.5799 45.0561L53.679 44.5409L52.7782 45.0561L53.1223 44.2225L52.2215 43.7074H53.335L53.679 42.8738Z" fill="white"/>
<path d="M60.8309 38.6517L61.175 39.4852H62.2885L61.3877 40.0004L61.7317 40.8339L60.8309 40.3188L59.9301 40.8339L60.2742 40.0004L59.3734 39.4852H60.4869L60.8309 38.6517Z" fill="white"/>
<path d="M60.8309 34.7312L61.175 35.5647H62.2885L61.3877 36.0799L61.7317 36.9134L60.8309 36.3983L59.9301 36.9134L60.2742 36.0799L59.3734 35.5647H60.4869L60.8309 34.7312Z" fill="white"/>
<path d="M60.8309 30.2075L61.175 31.041H62.2885L61.3877 31.5562L61.7317 32.3897L60.8309 31.8745L59.9301 32.3897L60.2742 31.5562L59.3734 31.041H60.4869L60.8309 30.2075Z" fill="white"/>
<path d="M60.8309 25.9853L61.175 26.8189H62.2885L61.3877 27.334L61.7317 28.1676L60.8309 27.6524L59.9301 28.1676L60.2742 27.334L59.3734 26.8189H60.4869L60.8309 25.9853Z" fill="white"/>
<path d="M60.8309 21.1601L61.175 21.9936H62.2885L61.3877 22.5088L61.7317 23.3423L60.8309 22.8272L59.9301 23.3423L60.2742 22.5088L59.3734 21.9936H60.4869L60.8309 21.1601Z" fill="white"/>
<path d="M60.4904 17.2395L60.8345 18.0731H61.9479L61.0471 18.5882L61.3912 19.4218L60.4904 18.9066L59.5896 19.4218L59.9336 18.5882L59.0328 18.0731H60.1463L60.4904 17.2395Z" fill="white"/>
<path d="M60.4904 12.4142L60.8345 13.2478H61.9479L61.0471 13.7629L61.3912 14.5965L60.4904 14.0813L59.5896 14.5965L59.9336 13.7629L59.0328 13.2478H60.1463L60.4904 12.4142Z" fill="white"/>
<path d="M67.6423 17.2395L67.9864 18.0731H69.0998L68.199 18.5882L68.5431 19.4218L67.6423 18.9066L66.7415 19.4218L67.0856 18.5882L66.1848 18.0731H67.2982L67.6423 17.2395Z" fill="white"/>
<path d="M67.6423 22.0648L67.9864 22.8984H69.0998L68.199 23.4135L68.5431 24.2471L67.6423 23.7319L66.7415 24.2471L67.0856 23.4135L66.1848 22.8984H67.2982L67.6423 22.0648Z" fill="white"/>
<path d="M67.6423 26.5885L67.9864 27.4221H69.0998L68.199 27.9372L68.5431 28.7708L67.6423 28.2556L66.7415 28.7708L67.0856 27.9372L66.1848 27.4221H67.2982L67.6423 26.5885Z" fill="white"/>
<path d="M67.6423 30.509L67.9864 31.3426H69.0998L68.199 31.8577L68.5431 32.6913L67.6423 32.1761L66.7415 32.6913L67.0856 31.8577L66.1848 31.3426H67.2982L67.6423 30.509Z" fill="white"/>
<path d="M67.9828 35.0327L68.3269 35.8663H69.4404L68.5396 36.3814L68.8837 37.215L67.9828 36.6998L67.082 37.215L67.4261 36.3814L66.5253 35.8663H67.6388L67.9828 35.0327Z" fill="white"/>
<path d="M75.1348 30.8106L75.4789 31.6442H76.5923L75.6915 32.1593L76.0356 32.9929L75.1348 32.4777L74.234 32.9929L74.5781 32.1593L73.6772 31.6442H74.7907L75.1348 30.8106Z" fill="white"/>
<path d="M75.1348 26.8901L75.4789 27.7236H76.5923L75.6915 28.2388L76.0356 29.0723L75.1348 28.5571L74.234 29.0723L74.5781 28.2388L73.6772 27.7236H74.7907L75.1348 26.8901Z" fill="white"/>
<path d="M75.1348 22.0648L75.4789 22.8984H76.5923L75.6915 23.4135L76.0356 24.2471L75.1348 23.7319L74.234 24.2471L74.5781 23.4135L73.6772 22.8984H74.7907L75.1348 22.0648Z" fill="white"/>
<path d="M82.2866 26.8901L82.6307 27.7236H83.7442L82.8434 28.2388L83.1874 29.0723L82.2866 28.5571L81.3858 29.0723L81.7299 28.2388L80.8291 27.7236H81.9425L82.2866 26.8901Z" fill="white"/>
<defs>
<filter id="filter0_d_31_207" x="87.4202" y="0" width="63.5798" height="61.2064" filterUnits="userSpaceOnUse" color-interpolation-filters="sRGB">
<feFlood flood-opacity="0" result="BackgroundImageFix"/>
<feColorMatrix in="SourceAlpha" type="matrix" values="0 0 0 0 0 0 0 0 0 0 0 0 0 0 0 0 0 0 127 0" result="hardAlpha"/>
<feOffset dy="4"/>
<feGaussianBlur stdDeviation="2"/>
<feComposite in2="hardAlpha" operator="out"/>
<feColorMatrix type="matrix" values="0 0 0 0 0 0 0 0 0 0 0 0 0 0 0 0 0 0 0.25 0"/>
<feBlend mode="normal" in2="BackgroundImageFix" result="effect1_dropShadow_31_207"/>
<feBlend mode="normal" in="SourceGraphic" in2="effect1_dropShadow_31_207" result="shape"/>
</filter>
</defs>
</svg>
