<svg width="153" height="107" viewBox="0 0 153 107" fill="none" xmlns="http://www.w3.org/2000/svg">
<g filter="url(#filter0_d_23_62)">
<path d="M9.5335 27.8056L26.7549 18.9585L41.414 9.87992C42.4769 9.22166 43.5875 8.64378 44.7366 8.15113L49.7704 5.99296L55.2036 3.8579C55.9408 3.56821 56.7694 3.6274 57.4579 4.01893L58.2248 4.45497C58.5701 4.65136 58.7834 5.01807 58.7834 5.41537C58.7834 5.7772 58.6063 6.11609 58.3092 6.32259L57.274 7.04202C56.6849 7.45143 55.9847 7.67085 55.2674 7.67085H53.1503L60.071 12.552L60.8604 11.6168C61.5846 10.7589 62.6501 10.264 63.7728 10.264H65.3257C65.6236 10.264 65.8651 10.0225 65.8651 9.72456C65.8651 9.33335 66.2686 9.07225 66.6254 9.23247L68.3619 10.012C68.7034 10.1653 68.9231 10.5048 68.9231 10.8792C68.9231 11.1655 68.7941 11.4365 68.5719 11.617L67.1897 12.7399C66.8449 13.02 66.4621 13.2497 66.0527 13.4221L63.7728 14.3824L70.5326 18.9585L71.6878 17.9549C72.2038 17.5067 72.7661 17.1148 73.3654 16.7861L74.6035 16.1067C75.2061 15.7761 75.8823 15.6027 76.5696 15.6027H77.5781C77.9128 15.6027 78.2363 15.7236 78.489 15.9431C79.2283 16.5854 79.0885 17.7706 78.2201 18.2233L76.8096 18.9585L73.7516 20.789L79.8256 25.06C80.8158 24.3506 81.8863 23.7606 83.0148 23.3022L85.8226 22.1618L88.7197 20.789C87.8007 19.4429 88.3337 17.593 89.828 16.9423L92.5012 15.7783C92.7502 15.6699 93.0383 15.7043 93.2547 15.8684L93.3214 15.9189C93.5505 16.0927 93.6359 16.3978 93.53 16.6653L93.5094 16.7175C93.3659 17.0801 93.6029 17.4808 93.9898 17.5297C94.5455 17.5999 94.7074 18.3277 94.2339 18.6269L93.7801 18.9137C93.7329 18.9435 93.6826 18.9682 93.6302 18.9875L88.7197 20.789L90.5277 23.038C90.9533 23.5673 90.8752 24.3402 90.3524 24.7738C90.1293 24.9587 89.8487 25.06 89.5589 25.06H88.2438C86.7181 25.06 85.2799 25.7722 84.3551 26.9857L83.7303 27.8056L57.1273 43.5511C48.5517 48.6267 37.7849 48.1443 29.6976 42.3221L9.5335 27.8056Z" fill="#CF4349"/>
<path d="M50.4729 54.9952L65.8651 45.8049L81.3161 34.9748L87.1668 31.4375C89.4745 30.0423 91.9922 29.0284 94.6228 28.4348L97.4108 27.8056L96.542 26.3235C96.1265 25.6146 96.3371 24.7046 97.0218 24.2503C97.2755 24.082 97.5732 23.9922 97.8777 23.9922H99.3422H101.43C101.646 23.9922 101.86 24.0304 102.063 24.1051L103.281 24.5542C103.932 24.7942 104.128 25.6205 103.653 26.1266C103.47 26.322 103.214 26.4328 102.946 26.4328H102.561C102.048 26.4328 101.557 26.6453 101.206 27.0198L101.113 27.1192C100.702 27.5572 100.128 27.8056 99.5278 27.8056H97.4108C98.809 28.9215 98.5337 31.1209 96.9036 31.8577L90.4525 34.7736C90.1561 34.9076 89.8697 35.0629 89.5958 35.2383L78.0971 42.6016L69.3883 49.3077C68.3288 50.1236 67.2057 50.8534 66.0299 51.4902L54.3815 57.7986C53.5982 58.2228 52.6711 58.2924 51.8333 57.9899L50.7224 57.5888C50.1511 57.3825 49.7704 56.8403 49.7704 56.2329C49.7704 55.7254 50.0372 55.2553 50.4729 54.9952Z" fill="#CF4349"/>
<path d="M70.5326 53.1266L56.6855 61.6429C55.9802 62.0767 55.7657 63.0033 56.2085 63.7029C56.3146 63.8704 56.4531 64.015 56.6159 64.1281L56.9587 64.3664C58.0749 65.1421 59.536 65.2124 60.7215 64.5475L72.9988 57.6611C74.0358 57.0794 75.0302 56.4247 75.9743 55.702L90.3493 44.6982C90.9788 44.2164 91.643 43.7817 92.3366 43.3977L107.035 35.26C107.313 35.1062 107.401 34.7483 107.226 34.4832C107.004 34.1468 107.212 33.6943 107.611 33.6427L109.717 33.3705C110.088 33.3226 110.436 33.1644 110.717 32.9164L111.117 32.5626C111.936 31.8378 111.887 30.5446 111.016 29.8837C110.559 29.5378 109.962 29.4396 109.419 29.6212L108.123 30.0548C107.743 30.1818 107.383 30.3609 107.053 30.587L106.017 31.2956C105.112 31.9156 104.133 32.4211 103.103 32.8007L102.937 32.8617C102.151 33.1513 101.392 33.5074 100.667 33.9262L87.754 41.3813L70.5326 53.1266Z" fill="#CF4349"/>
<path d="M62.8456 72.8475L62.568 72.6322C62.2112 72.3555 62.0024 71.9294 62.0024 71.4779C62.0024 70.9743 62.2619 70.5061 62.6891 70.2392L83.7303 57.0925L97.4108 45.9574L106.432 39.4029C106.855 39.0953 107.303 38.8228 107.77 38.5882L109.214 37.8639C109.602 37.6693 110.03 37.5679 110.464 37.5679H110.574C110.81 37.5679 111.044 37.6071 111.267 37.684L112.065 37.9591C112.446 38.0901 112.701 38.448 112.701 38.8501C112.701 39.189 112.519 39.5018 112.224 39.6694L106.374 42.9962C105.234 43.6443 104.203 44.4676 103.319 45.4359L99.3658 49.7653C98.0668 51.1879 96.6083 52.4561 95.0189 53.5449L68.5065 71.7072C68.0354 72.03 67.5225 72.2871 66.982 72.4715L64.8832 73.1876C64.1901 73.4241 63.4244 73.2963 62.8456 72.8475Z" fill="#CF4349"/>
<path d="M67.41 8.2426L66.7441 7.45372C66.6962 7.39693 66.6699 7.32502 66.6699 7.2507C66.6699 7.13386 66.7346 7.02663 66.838 6.9722L70.3297 5.13374C70.7854 4.89379 71.2667 4.70599 71.7645 4.57389L74.4874 3.85133C74.8547 3.75386 75.2288 3.68377 75.6065 3.64166L76.3701 3.55652C77.2887 3.45409 78.2177 3.60949 79.0529 4.00529L79.8433 4.37982C79.9653 4.43767 80.0736 4.52101 80.1607 4.62423C80.6508 5.20486 80.29 6.09715 79.5341 6.17391L77.2346 6.40741C76.9539 6.4359 76.6816 6.51899 76.4328 6.65199L72.0279 9.00693C71.0755 9.51612 69.9525 9.60021 68.9349 9.23854L68.7572 9.17536C68.2334 8.98922 67.7685 8.66733 67.41 8.2426Z" fill="#CF4349"/>
<path d="M79.7773 15.0861L78.6738 14.1564C78.6114 14.1038 78.5535 14.046 78.5009 13.9837C77.8904 13.2604 78.1301 12.155 78.9854 11.7497L81.5879 10.5165C81.9409 10.3492 82.3184 10.2395 82.7061 10.1916L85.2822 9.87317C85.6366 9.82936 85.9963 9.8769 86.3271 10.0113L86.3947 10.0387C86.7553 10.1852 87.0612 10.4408 87.2694 10.7697L87.2855 10.795C87.8766 11.7288 87.5173 12.9693 86.5186 13.4425C86.2723 13.5592 86.0031 13.6198 85.7305 13.6198H84.1705C83.7724 13.6198 83.377 13.6849 82.9999 13.8125L81.6904 14.2557C81.4541 14.3357 81.2677 14.5199 81.185 14.7553C81.0707 15.0802 80.7637 15.2977 80.4192 15.2977H80.3569C80.1448 15.2977 79.9395 15.2227 79.7773 15.0861Z" fill="#CF4349"/>
<path d="M72.464 97.8197L6.43588 31.1808C5.84322 30.5827 5.0361 30.2462 4.19407 30.2462H3.80232C2.87266 30.2462 2.01938 29.7316 1.58559 28.9094V28.9094C1.21885 28.2142 1.19944 27.3873 1.53313 26.6757L1.58958 26.5554C2.01754 25.6428 2.94238 25.06 3.95033 25.06V25.06C4.90502 25.06 5.7886 25.5884 6.23407 26.4328V26.4328C6.67955 27.2772 7.55581 27.8056 8.5105 27.8056H9.5335M9.5335 27.8056L26.7549 18.9585L41.414 9.87992C42.4769 9.22166 43.5875 8.64378 44.7366 8.15113L49.7704 5.99296M9.5335 27.8056L29.6976 42.3221C37.7849 48.1443 48.5517 48.6267 57.1273 43.5511L83.7303 27.8056M49.7704 5.99296L55.2036 3.8579C55.9408 3.56821 56.7694 3.6274 57.4579 4.01893L58.2247 4.45497C58.5701 4.65136 58.7834 5.01807 58.7834 5.41537V5.41537C58.7834 5.7772 58.6063 6.11609 58.3092 6.32259L57.274 7.04202C56.6849 7.45143 55.9847 7.67085 55.2674 7.67085H53.1503M49.7704 5.99296L53.1503 7.67085M53.1503 7.67085L60.071 12.552M60.071 12.552L60.8604 11.6168C61.5846 10.7589 62.6501 10.264 63.7728 10.264V10.264H65.3257C65.6236 10.264 65.8651 10.0225 65.8651 9.72456V9.72456C65.8651 9.33335 66.2685 9.07225 66.6254 9.23247L68.3619 10.012C68.7034 10.1653 68.9231 10.5048 68.9231 10.8792V10.8792C68.9231 11.1655 68.7941 11.4365 68.5719 11.617L67.1897 12.7399C66.8449 13.02 66.4621 13.2497 66.0527 13.4221L63.7728 14.3824M60.071 12.552L63.7728 14.3824M63.7728 14.3824L70.5326 18.9585M70.5326 18.9585L71.6878 17.9549C72.2038 17.5067 72.7662 17.1148 73.3654 16.7861L74.6035 16.1067C75.2061 15.7761 75.8823 15.6027 76.5696 15.6027H77.5781C77.9128 15.6027 78.2363 15.7236 78.489 15.9431V15.9431C79.2283 16.5854 79.0885 17.7706 78.2201 18.2233L76.8096 18.9585L73.7516 20.789M70.5326 18.9585L73.7516 20.789M73.7516 20.789L79.8256 25.06M83.7303 27.8056L84.3551 26.9857C85.2799 25.7722 86.7181 25.06 88.2438 25.06H89.5589C89.8487 25.06 90.1293 24.9587 90.3524 24.7738V24.7738C90.8752 24.3402 90.9533 23.5673 90.5277 23.038L88.7197 20.789M83.7303 27.8056L79.8256 25.06M88.7197 20.789L85.8226 22.1618L83.0148 23.3022C81.8863 23.7606 80.8158 24.3506 79.8256 25.06V25.06M88.7197 20.789V20.789C87.8007 19.4429 88.3337 17.593 89.828 16.9423L92.5012 15.7783C92.7502 15.6699 93.0383 15.7043 93.2547 15.8684L93.3214 15.9189C93.5505 16.0927 93.6359 16.3978 93.5301 16.6653L93.5094 16.7175C93.3659 17.0801 93.6029 17.4808 93.9898 17.5297V17.5297C94.5455 17.5999 94.7074 18.3277 94.2339 18.6269L93.7801 18.9137C93.7329 18.9435 93.6826 18.9682 93.6302 18.9875L88.7197 20.789ZM97.4108 27.8056L94.6228 28.4348C91.9922 29.0284 89.4745 30.0423 87.1668 31.4375L81.3161 34.9748L65.8651 45.8049L50.4729 54.9952C50.0372 55.2553 49.7704 55.7254 49.7704 56.2329V56.2329C49.7704 56.8403 50.1511 57.3825 50.7224 57.5888L51.8333 57.9899C52.6711 58.2924 53.5982 58.2228 54.3815 57.7986L66.0299 51.4902C67.2057 50.8534 68.3288 50.1236 69.3883 49.3077L78.0971 42.6016L89.5958 35.2383C89.8697 35.0629 90.1561 34.9076 90.4525 34.7736L96.9036 31.8577C98.5337 31.1209 98.809 28.9215 97.4108 27.8056V27.8056ZM97.4108 27.8056L96.542 26.3235C96.1265 25.6146 96.3371 24.7046 97.0218 24.2503V24.2503C97.2755 24.082 97.5732 23.9922 97.8777 23.9922H99.3422H101.43C101.646 23.9922 101.86 24.0304 102.063 24.1051L103.281 24.5542C103.932 24.7942 104.128 25.6205 103.653 26.1266V26.1266C103.47 26.322 103.214 26.4328 102.946 26.4328H102.561C102.048 26.4328 101.557 26.6453 101.206 27.0198L101.113 27.1192C100.702 27.5572 100.128 27.8056 99.5278 27.8056H97.4108ZM14.04 33.7545L13.2353 33.2969M70.5326 53.1266L56.6855 61.6429C55.9802 62.0767 55.7657 63.0033 56.2085 63.7029V63.7029C56.3146 63.8704 56.4531 64.015 56.6159 64.1281L56.9587 64.3664C58.0749 65.1421 59.536 65.2124 60.7215 64.5475L72.9988 57.6611C74.0358 57.0794 75.0302 56.4247 75.9743 55.702L90.3493 44.6982C90.9788 44.2164 91.643 43.7817 92.3366 43.3977L107.035 35.26C107.313 35.1062 107.401 34.7483 107.226 34.4832V34.4832C107.004 34.1468 107.212 33.6943 107.611 33.6427L109.717 33.3705C110.088 33.3226 110.436 33.1644 110.717 32.9164L111.117 32.5626C111.936 31.8378 111.887 30.5446 111.016 29.8837V29.8837C110.559 29.5378 109.962 29.4396 109.419 29.6212L108.123 30.0548C107.743 30.1818 107.383 30.3609 107.053 30.587L106.017 31.2957C105.112 31.9156 104.133 32.4211 103.103 32.8007L102.937 32.8617C102.151 33.1513 101.392 33.5074 100.667 33.9262L87.754 41.3813L70.5326 53.1266ZM97.4108 45.9574L106.432 39.4029C106.855 39.0953 107.303 38.8228 107.77 38.5882L109.214 37.8639C109.602 37.6693 110.03 37.5679 110.464 37.5679H110.574C110.81 37.5679 111.044 37.6071 111.267 37.684L112.065 37.9591C112.446 38.0901 112.701 38.448 112.701 38.8501V38.8501C112.701 39.189 112.519 39.5018 112.224 39.6694L106.374 42.9962C105.234 43.6443 104.203 44.4676 103.319 45.4359L99.3658 49.7653C98.0668 51.1879 96.6083 52.4561 95.019 53.5449L68.5065 71.7072C68.0354 72.03 67.5225 72.2871 66.982 72.4715L64.8832 73.1876C64.1901 73.4241 63.4244 73.2963 62.8456 72.8475L62.568 72.6322C62.2112 72.3555 62.0024 71.9294 62.0024 71.4779V71.4779C62.0024 70.9743 62.2619 70.5061 62.6891 70.2392L83.7303 57.0925L97.4108 45.9574ZM86.3271 10.0113L86.3947 10.0387C86.7553 10.1852 87.0612 10.4408 87.2694 10.7697L87.2855 10.795C87.8766 11.7288 87.5173 12.9693 86.5186 13.4425V13.4425C86.2723 13.5592 86.0031 13.6198 85.7305 13.6198H84.1705C83.7724 13.6198 83.377 13.6849 82.9999 13.8125L81.6904 14.2557C81.4541 14.3357 81.2677 14.5199 81.185 14.7553V14.7553C81.0707 15.0802 80.7637 15.2977 80.4192 15.2977H80.357C80.1448 15.2977 79.9395 15.2227 79.7773 15.0861L78.6738 14.1564C78.6114 14.1038 78.5535 14.046 78.5009 13.9837V13.9837C77.8904 13.2604 78.1301 12.155 78.9854 11.7497L81.5879 10.5165C81.9409 10.3492 82.3184 10.2395 82.7061 10.1916L85.2822 9.87317C85.6366 9.82936 85.9963 9.8769 86.3271 10.0113ZM76.4328 6.65199L72.0279 9.00693C71.0755 9.51612 69.9525 9.6002 68.9349 9.23854L68.7572 9.17536C68.2334 8.98922 67.7685 8.66733 67.41 8.2426L66.7441 7.45372C66.6962 7.39693 66.6699 7.32502 66.6699 7.2507V7.2507C66.6699 7.13386 66.7346 7.02663 66.838 6.9722L70.3297 5.13374C70.7854 4.89379 71.2667 4.70599 71.7645 4.57389L74.4874 3.85133C74.8547 3.75386 75.2288 3.68377 75.6065 3.64166L76.3701 3.55652C77.2887 3.45409 78.2177 3.60949 79.0529 4.00529L79.8433 4.37982C79.9653 4.43767 80.0736 4.52101 80.1607 4.62423V4.62423C80.6508 5.20486 80.29 6.09715 79.5341 6.17391L77.2346 6.40741C76.9539 6.4359 76.6816 6.51899 76.4328 6.65199Z" stroke="#CF4349"/>
<g filter="url(#filter1_d_23_62)">
<path d="M87.3685 9.3346L87.2691 9.19331C86.5686 8.19745 86.8405 6.81842 87.8667 6.16304L92.7806 3.02456C93.1841 2.76684 93.6107 2.54726 94.0549 2.36865L98.3664 0.635122C98.5857 0.546951 98.8199 0.501639 99.0562 0.501639C99.4511 0.501639 99.8356 0.628033 100.153 0.862317L102.465 2.56599C102.528 2.61302 102.583 2.6715 102.625 2.73846C102.842 3.08001 102.69 3.534 102.312 3.6773L102.239 3.7049L100.278 4.32454C98.3768 4.92511 96.5741 5.80123 94.9273 6.92495L94.113 7.48062C93.6301 7.81012 93.1182 8.09488 92.5835 8.33134L89.1791 9.83703C88.7852 10.0113 88.335 10.0054 87.9457 9.82093C87.7145 9.71138 87.5157 9.54383 87.3685 9.3346Z" fill="#CF4349"/>
<path d="M94.2982 15.3851L94.081 15.2915C93.643 15.1028 93.3161 14.7232 93.1945 14.2621C93.0218 13.6073 93.2936 12.9162 93.866 12.5545L95.3665 11.6064C95.6552 11.424 95.9662 11.2796 96.2918 11.1768L98.2409 10.561C99.1884 10.2617 100.112 9.89137 101.004 9.45316L103.238 8.35532C103.75 8.10363 104.295 7.92524 104.857 7.8254L106.107 7.60327C106.419 7.54776 106.741 7.58166 107.035 7.70106L107.259 7.79226C107.548 7.90942 107.775 8.14087 107.886 8.43154C108.133 9.07458 107.749 9.78636 107.076 9.93352L106.432 10.0744C106.32 10.099 106.21 10.1351 106.105 10.182L103.527 11.3317L100.469 13.1621L95.9984 15.3447C95.4646 15.6053 94.8437 15.6201 94.2982 15.3851Z" fill="#CF4349"/>
<path d="M100.704 19.111H99.8928C99.5887 19.111 99.3422 19.3576 99.3422 19.6617C99.3422 19.7982 99.3929 19.9298 99.4845 20.031L99.8376 20.4215C100.141 20.7573 100.554 20.9748 101.003 21.0355L101.43 21.0934C102.16 21.1923 102.902 21.0277 103.521 20.6292L107.068 18.3484L112.39 15.4826C113.242 15.0233 113.376 13.8545 112.649 13.2145C112.199 12.8189 111.547 12.7555 111.03 13.0572L107.711 14.9926L104.454 16.4174C103.842 16.6853 103.286 17.0678 102.817 17.5441L101.674 18.7049C101.418 18.9647 101.068 19.111 100.704 19.111Z" fill="#CF4349"/>
<path d="M107.101 46.7492L110.27 42.2443C110.583 41.7989 111.094 41.5339 111.638 41.5339H111.69C111.827 41.5339 111.962 41.5547 112.092 41.5958C112.952 41.8673 113.827 41.2256 113.827 40.3242V38.9096C113.827 38.0772 114.264 37.3058 114.978 36.8774L117.725 35.2287C118.282 34.8941 118.99 34.9494 119.489 35.3665C120.362 36.0961 120.158 37.4892 119.114 37.9391L118.417 38.2393C118.048 38.3982 117.736 38.6646 117.522 39.0037L116.515 40.5944C116.12 41.2175 115.638 41.7804 115.083 42.2659L114.54 42.7406C114.071 43.1516 113.518 43.4569 112.92 43.6359C111.571 44.0398 110.499 45.0708 110.044 46.4039L109.09 49.1987C109.03 49.3755 108.999 49.5611 108.999 49.7479V50.2479C108.999 51.4706 107.585 52.151 106.63 51.3883C106.206 51.0502 106.005 50.5053 106.107 49.973L106.416 48.3636C106.527 47.783 106.761 47.2327 107.101 46.7492Z" fill="#CF4349"/>
<path d="M112.305 52.7785L112.172 52.6112C111.46 51.7117 111.785 50.3825 112.832 49.9128L113.47 49.6262C113.707 49.52 113.924 49.3746 114.112 49.1963L121.43 42.2603C121.935 41.7816 122.537 41.4165 123.195 41.1897L123.576 41.0585C123.835 40.9693 124.107 40.9237 124.381 40.9237H124.986C125.359 40.9237 125.712 41.0943 125.943 41.3867C126.294 41.8305 126.294 42.4575 125.943 42.9013C125.712 43.1937 125.359 43.3643 124.986 43.3643H124.763C124.259 43.3643 123.782 43.59 123.462 43.9793L121.115 46.8391C120.764 47.2674 120.376 47.6641 119.955 48.0247L114.198 52.9613C113.959 53.1664 113.654 53.2791 113.339 53.2791C112.936 53.2791 112.555 53.0947 112.305 52.7785Z" fill="#CF4349"/>
<path d="M128.152 43.8219L127.922 44.1487C127.862 44.2338 127.83 44.3354 127.83 44.4395C127.83 44.8356 128.265 45.0777 128.602 44.8691L132.015 42.7541L134.171 41.3118C134.554 41.055 134.98 40.867 135.428 40.7562L137.972 40.1274C138.254 40.0575 138.452 39.8041 138.452 39.5132C138.452 39.2588 138.3 39.029 138.065 38.9302L137.004 38.4831C135.56 37.8966 133.943 37.9007 132.502 38.4945L131.578 38.8754C131.226 39.0202 130.893 39.2044 130.583 39.4245L129.707 40.0472C128.933 40.5971 128.474 41.4875 128.474 42.4365V42.8048C128.474 43.1689 128.361 43.5241 128.152 43.8219Z" fill="#CF4349"/>
<path d="M123.802 36.4873L123.611 35.9439C123.355 35.2175 123.684 34.415 124.376 34.0771L127.835 32.3883C128.259 32.1813 128.707 32.0264 129.168 31.927L131.421 31.4417C131.8 31.3601 132.196 31.4368 132.517 31.654L132.725 31.7947C132.985 31.971 133.141 32.265 133.141 32.5796C133.141 33.0039 132.859 33.3765 132.451 33.4918L126.246 35.2434C125.823 35.3629 125.477 35.6683 125.306 36.0734L125.114 36.5275C125.004 36.7883 124.749 36.9578 124.466 36.9578C124.167 36.9578 123.901 36.7692 123.802 36.4873Z" fill="#CF4349"/>
<path d="M118.656 28.2632L123.811 25.5074C124.442 25.1699 125.227 25.3805 125.604 25.9886C126.076 26.7496 125.695 27.7515 124.836 28.0059L124.253 28.1786C124.064 28.2346 123.885 28.321 123.723 28.4343L119.84 31.1606C119.695 31.2626 119.541 31.3522 119.38 31.4282L118.394 31.8959C117.779 32.1869 117.048 32.0583 116.571 31.5752C115.787 30.7829 116.033 29.4523 117.048 28.9922L118.656 28.2632Z" fill="#CF4349"/>
<path d="M112.701 24.9074L110.015 26.789C109.424 27.2031 108.623 27.1439 108.099 26.6474C107.267 25.8591 107.575 24.4686 108.662 24.105L108.835 24.0471C108.944 24.0106 109.049 23.9626 109.148 23.9039L113.622 21.2539C113.972 21.0466 114.293 20.7933 114.576 20.5008L115.401 19.6477C115.732 19.3047 116.189 19.111 116.666 19.111H116.711C117.133 19.111 117.539 19.2728 117.845 19.5629C118.805 20.473 118.356 22.0866 117.064 22.3692L116.328 22.5301C116.059 22.589 115.804 22.7017 115.579 22.8614L112.701 24.9074Z" fill="#CF4349"/>
<path d="M87.3685 9.3346L87.2691 9.19331C86.5686 8.19745 86.8405 6.81842 87.8667 6.16304L92.7806 3.02456C93.1841 2.76684 93.6107 2.54726 94.0549 2.36865L98.3664 0.635122C98.5857 0.546951 98.8199 0.501639 99.0562 0.501639C99.4511 0.501639 99.8356 0.628033 100.153 0.862317L102.465 2.56599C102.528 2.61302 102.583 2.6715 102.625 2.73846C102.842 3.08001 102.69 3.534 102.312 3.6773L102.239 3.7049L100.278 4.32454C98.3768 4.92511 96.5741 5.80123 94.9273 6.92495L94.113 7.48062C93.6301 7.81012 93.1182 8.09488 92.5835 8.33134L89.1791 9.83703C88.7852 10.0113 88.335 10.0054 87.9457 9.82093C87.7145 9.71138 87.5157 9.54383 87.3685 9.3346Z" stroke="#CF4349"/>
<path d="M94.2982 15.3851L94.081 15.2915C93.643 15.1028 93.3161 14.7232 93.1945 14.2621C93.0218 13.6073 93.2936 12.9162 93.866 12.5545L95.3665 11.6064C95.6552 11.424 95.9662 11.2796 96.2918 11.1768L98.2409 10.561C99.1884 10.2617 100.112 9.89137 101.004 9.45316L103.238 8.35532C103.75 8.10363 104.295 7.92524 104.857 7.8254L106.107 7.60327C106.419 7.54776 106.741 7.58166 107.035 7.70106L107.259 7.79226C107.548 7.90942 107.775 8.14087 107.886 8.43154C108.133 9.07458 107.749 9.78636 107.076 9.93352L106.432 10.0744C106.32 10.099 106.21 10.1351 106.105 10.182L103.527 11.3317L100.469 13.1621L95.9984 15.3447C95.4646 15.6053 94.8437 15.6201 94.2982 15.3851Z" stroke="#CF4349"/>
<path d="M100.704 19.111H99.8928C99.5887 19.111 99.3422 19.3576 99.3422 19.6617C99.3422 19.7982 99.3929 19.9298 99.4845 20.031L99.8376 20.4215C100.141 20.7573 100.554 20.9748 101.003 21.0355L101.43 21.0934C102.16 21.1923 102.902 21.0277 103.521 20.6292L107.068 18.3484L112.39 15.4826C113.242 15.0233 113.376 13.8545 112.649 13.2145C112.199 12.8189 111.547 12.7555 111.03 13.0572L107.711 14.9926L104.454 16.4174C103.842 16.6853 103.286 17.0678 102.817 17.5441L101.674 18.7049C101.418 18.9647 101.068 19.111 100.704 19.111Z" stroke="#CF4349"/>
<path d="M107.101 46.7492L110.27 42.2443C110.583 41.7989 111.094 41.5339 111.638 41.5339H111.69C111.827 41.5339 111.962 41.5547 112.092 41.5958C112.952 41.8673 113.827 41.2256 113.827 40.3242V38.9096C113.827 38.0772 114.264 37.3058 114.978 36.8774L117.725 35.2287C118.282 34.8941 118.99 34.9494 119.489 35.3665C120.362 36.0961 120.158 37.4892 119.114 37.9391L118.417 38.2393C118.048 38.3982 117.736 38.6646 117.522 39.0037L116.515 40.5944C116.12 41.2175 115.638 41.7804 115.083 42.2659L114.54 42.7406C114.071 43.1516 113.518 43.4569 112.92 43.6359C111.571 44.0398 110.499 45.0708 110.044 46.4039L109.09 49.1987C109.03 49.3755 108.999 49.5611 108.999 49.7479V50.2479C108.999 51.4706 107.585 52.151 106.63 51.3883C106.206 51.0502 106.005 50.5053 106.107 49.973L106.416 48.3636C106.527 47.783 106.761 47.2327 107.101 46.7492Z" stroke="#CF4349"/>
<path d="M112.305 52.7785L112.172 52.6112C111.46 51.7117 111.785 50.3825 112.832 49.9128L113.47 49.6262C113.707 49.52 113.924 49.3746 114.112 49.1963L121.43 42.2603C121.935 41.7816 122.537 41.4165 123.195 41.1897L123.576 41.0585C123.835 40.9693 124.107 40.9237 124.381 40.9237H124.986C125.359 40.9237 125.712 41.0943 125.943 41.3867C126.294 41.8305 126.294 42.4575 125.943 42.9013C125.712 43.1937 125.359 43.3643 124.986 43.3643H124.763C124.259 43.3643 123.782 43.59 123.462 43.9793L121.115 46.8391C120.764 47.2674 120.376 47.6641 119.955 48.0247L114.198 52.9613C113.959 53.1664 113.654 53.2791 113.339 53.2791C112.936 53.2791 112.555 53.0947 112.305 52.7785Z" stroke="#CF4349"/>
<path d="M128.152 43.8219L127.922 44.1487C127.862 44.2338 127.83 44.3354 127.83 44.4395C127.83 44.8356 128.265 45.0777 128.602 44.8691L132.015 42.7541L134.171 41.3118C134.554 41.055 134.98 40.867 135.428 40.7562L137.972 40.1274C138.254 40.0575 138.452 39.8041 138.452 39.5132C138.452 39.2588 138.3 39.029 138.065 38.9302L137.004 38.4831C135.56 37.8966 133.943 37.9007 132.502 38.4945L131.578 38.8754C131.226 39.0202 130.893 39.2044 130.583 39.4245L129.707 40.0472C128.933 40.5971 128.474 41.4875 128.474 42.4365V42.8048C128.474 43.1689 128.361 43.5241 128.152 43.8219Z" stroke="#CF4349"/>
<path d="M123.802 36.4873L123.611 35.9439C123.355 35.2175 123.684 34.415 124.376 34.0771L127.835 32.3883C128.259 32.1813 128.707 32.0264 129.168 31.927L131.421 31.4417C131.8 31.3601 132.196 31.4368 132.517 31.654L132.725 31.7947C132.985 31.971 133.141 32.265 133.141 32.5796C133.141 33.0039 132.859 33.3765 132.451 33.4918L126.246 35.2434C125.823 35.3629 125.477 35.6683 125.306 36.0734L125.114 36.5275C125.004 36.7883 124.749 36.9578 124.466 36.9578C124.167 36.9578 123.901 36.7692 123.802 36.4873Z" stroke="#CF4349"/>
<path d="M118.656 28.2632L123.811 25.5074C124.442 25.1699 125.227 25.3805 125.604 25.9886C126.076 26.7496 125.695 27.7515 124.836 28.0059L124.253 28.1786C124.064 28.2346 123.885 28.321 123.723 28.4343L119.84 31.1606C119.695 31.2626 119.541 31.3522 119.38 31.4282L118.394 31.8959C117.779 32.1869 117.048 32.0583 116.571 31.5752C115.787 30.7829 116.033 29.4523 117.048 28.9922L118.656 28.2632Z" stroke="#CF4349"/>
<path d="M112.701 24.9074L110.015 26.789C109.424 27.2031 108.623 27.1439 108.099 26.6474C107.267 25.8591 107.575 24.4686 108.662 24.105L108.835 24.0471C108.944 24.0106 109.049 23.9626 109.148 23.9039L113.622 21.2539C113.972 21.0466 114.293 20.7933 114.576 20.5008L115.401 19.6477C115.732 19.3047 116.189 19.111 116.666 19.111H116.711C117.133 19.111 117.539 19.2728 117.845 19.5629C118.805 20.473 118.356 22.0866 117.064 22.3692L116.328 22.5301C116.059 22.589 115.804 22.7017 115.579 22.8614L112.701 24.9074Z" stroke="#CF4349"/>
</g>
<path d="M74.7443 95.8131L72.2361 97.8197L5.51803 30.0984H2.5082L1.00328 27.5902L2.5082 25.082H5.51803L7.02295 27.5902H9.02951L14.0459 32.1049L33.1082 45.6492L49.6623 58.6918L60.6984 72.2361L63.6365 79.7607L74.7443 89.7934V91.2984L25.5836 47.1541L74.7443 95.8131Z" fill="black"/>
<path d="M14.0459 32.1049L9.02951 27.5902H7.02295L5.51803 25.082H2.5082L1.00328 27.5902L2.5082 30.0984H5.51803L72.2361 97.8197L74.7443 95.8131L25.5836 47.1541L74.7443 91.2984V89.7934L63.6365 79.7607M14.0459 32.1049L12.541 33.6098L60.1967 76.6537M14.0459 32.1049L33.1082 45.6492L49.6623 58.6918L60.6984 72.2361L63.6365 79.7607M63.6365 79.7607L60.1967 76.6537M60.1967 76.6537L59.1934 73.741L48.659 60.1967L13.5443 33.6098" stroke="black"/>
<path d="M58.5816 72.9103L58.9983 74.1594C59.0796 74.403 58.8503 74.636 58.6054 74.5587C58.5609 74.5447 58.5201 74.5209 58.4859 74.4891L52.3096 68.7453L47.174 64.0909L37.9955 55.6096L26.2065 45.2694C26.1294 45.2018 26.0852 45.1043 26.0852 45.0018V44.9773C26.0852 44.7943 26.2336 44.6459 26.4166 44.6459C26.4854 44.6459 26.5524 44.6673 26.6085 44.7071L26.9594 44.9562L31.4394 47.8523L39.4159 53.2307L47.174 59.3331L53.0744 65.2286L55.9154 68.9521L58.4596 72.665C58.5115 72.7407 58.5526 72.8232 58.5816 72.9103Z" fill="#42485A" stroke="#42485A"/>
<path d="M32.1049 44.6459L9.53115 27.0885L27.0885 18.5607L33.1082 14.5475L42.6393 8.52787L50.6656 5.51803L54.6787 8.52787L59.6951 12.0393L64.7115 14.5475L70.2295 18.5607L74.7443 21.0689L79.7607 24.5803L84.2754 28.0918L82.7705 29.0951L62.2033 41.1344L52.1705 46.6525L45.6492 47.1541H40.1311L32.1049 44.6459Z" fill="#3C528E" stroke="#3C528E"/>
<ellipse cx="4.51475" cy="27.5902" rx="4.51475" ry="4.01311" fill="black"/>
<path d="M15.0057 27.8056L15.3309 28.6488H16.3833L15.5319 29.1699L15.8571 30.0131L15.0057 29.492L14.1543 30.0131L14.4795 29.1699L13.6281 28.6488H14.6805L15.0057 27.8056Z" fill="white" fill-opacity="0.5"/>
<path d="M21.4436 24.1447L21.7688 24.9879H22.8213L21.9698 25.5091L22.295 26.3523L21.4436 25.8311L20.5922 26.3523L20.9174 25.5091L20.066 24.9879H21.1184L21.4436 24.1447Z" fill="white" fill-opacity="0.5"/>
<path d="M28.2034 19.8737L28.5287 20.7169H29.5811L28.7297 21.238L29.0549 22.0812L28.2034 21.5601L27.352 22.0812L27.6772 21.238L26.8258 20.7169H27.8782L28.2034 19.8737Z" fill="white" fill-opacity="0.5"/>
<path d="M35.2851 15.9078L35.6103 16.751H36.6627L35.8113 17.2721L36.1365 18.1153L35.2851 17.5942L34.4337 18.1153L34.7589 17.2721L33.9075 16.751H34.9599L35.2851 15.9078Z" fill="white" fill-opacity="0.5"/>
<path d="M43.6544 11.3317L43.9796 12.1749H45.032L44.1806 12.696L44.5058 13.5392L43.6544 13.0181L42.803 13.5392L43.1282 12.696L42.2768 12.1749H43.3292L43.6544 11.3317Z" fill="white" fill-opacity="0.5"/>
<path d="M49.1266 7.67085L49.4518 8.51405H50.5042L49.6528 9.03517L49.978 9.87837L49.1266 9.35725L48.2751 9.87837L48.6003 9.03517L47.7489 8.51405H48.8013L49.1266 7.67085Z" fill="white" fill-opacity="0.5"/>
<path d="M49.1266 13.1621L49.4518 14.0053H50.5042L49.6528 14.5264L49.978 15.3696L49.1266 14.8485L48.2751 15.3696L48.6003 14.5264L47.7489 14.0053H48.8013L49.1266 13.1621Z" fill="white" fill-opacity="0.5"/>
<path d="M43.6544 16.2129L43.9796 17.0561H45.032L44.1806 17.5772L44.5058 18.4204L43.6544 17.8993L42.803 18.4204L43.1282 17.5772L42.2768 17.0561H43.3292L43.6544 16.2129Z" fill="white" fill-opacity="0.5"/>
<path d="M35.2851 20.1788L35.6103 21.022H36.6627L35.8113 21.5431L36.1365 22.3863L35.2851 21.8652L34.4337 22.3863L34.7589 21.5431L33.9075 21.022H34.9599L35.2851 20.1788Z" fill="white" fill-opacity="0.5"/>
<path d="M22.0874 28.4157L22.4126 29.2589H23.465L22.6136 29.7801L22.9388 30.6233L22.0874 30.1021L21.236 30.6233L21.5612 29.7801L20.7098 29.2589H21.7622L22.0874 28.4157Z" fill="white" fill-opacity="0.5"/>
<path d="M28.8472 24.7549L29.1724 25.5981H30.2248L29.3734 26.1192L29.6986 26.9624L28.8472 26.4413L27.9958 26.9624L28.321 26.1192L27.4696 25.5981H28.522L28.8472 24.7549Z" fill="white" fill-opacity="0.5"/>
<path d="M22.0874 33.2969L22.4126 34.1401H23.465L22.6136 34.6612L22.9388 35.5044L22.0874 34.9833L21.236 35.5044L21.5612 34.6612L20.7098 34.1401H21.7622L22.0874 33.2969Z" fill="white" fill-opacity="0.5"/>
<path d="M29.491 37.873L29.8162 38.7162H30.8686L30.0172 39.2373L30.3424 40.0805L29.491 39.5594L28.6396 40.0805L28.9648 39.2373L28.1133 38.7162H29.1658L29.491 37.873Z" fill="white" fill-opacity="0.5"/>
<path d="M29.491 32.9918L29.8162 33.835H30.8686L30.0172 34.3562L30.3424 35.1994L29.491 34.6782L28.6396 35.1994L28.9648 34.3562L28.1133 33.835H29.1658L29.491 32.9918Z" fill="white" fill-opacity="0.5"/>
<path d="M29.491 28.7208L29.8162 29.564H30.8686L30.0172 30.0851L30.3424 30.9283L29.491 30.4072L28.6396 30.9283L28.9648 30.0851L28.1133 29.564H29.1658L29.491 28.7208Z" fill="white" fill-opacity="0.5"/>
<path d="M35.607 24.7549L35.9322 25.5981H36.9847L36.1332 26.1192L36.4585 26.9624L35.607 26.4413L34.7556 26.9624L35.0808 26.1192L34.2294 25.5981H35.2818L35.607 24.7549Z" fill="white" fill-opacity="0.5"/>
<path d="M36.2508 29.0259L36.576 29.8691H37.6284L36.777 30.3902L37.1022 31.2334L36.2508 30.7123L35.3994 31.2334L35.7246 30.3902L34.8732 29.8691H35.9256L36.2508 29.0259Z" fill="white" fill-opacity="0.5"/>
<path d="M36.2508 33.9071L36.576 34.7503H37.6284L36.777 35.2714L37.1022 36.1146L36.2508 35.5935L35.3994 36.1146L35.7246 35.2714L34.8732 34.7503H35.9256L36.2508 33.9071Z" fill="white" fill-opacity="0.5"/>
<path d="M36.8946 38.4831L37.2198 39.3263H38.2722L37.4208 39.8474L37.746 40.6906L36.8946 40.1695L36.0431 40.6906L36.3684 39.8474L35.5169 39.3263H36.5693L36.8946 38.4831Z" fill="white" fill-opacity="0.5"/>
<path d="M36.8946 42.7541L37.2198 43.5973H38.2722L37.4208 44.1185L37.746 44.9617L36.8946 44.4405L36.0431 44.9617L36.3684 44.1185L35.5169 43.5973H36.5693L36.8946 42.7541Z" fill="white" fill-opacity="0.5"/>
<path d="M43.6544 47.0251L43.9796 47.8683H45.032L44.1806 48.3895L44.5058 49.2327L43.6544 48.7115L42.803 49.2327L43.1282 48.3895L42.2768 47.8683H43.3292L43.6544 47.0251Z" fill="white" fill-opacity="0.5"/>
<path d="M43.6544 42.4491L43.9796 43.2923H45.032L44.1806 43.8134L44.5058 44.6566L43.6544 44.1355L42.803 44.6566L43.1282 43.8134L42.2768 43.2923H43.3292L43.6544 42.4491Z" fill="white" fill-opacity="0.5"/>
<path d="M43.6544 38.7882L43.9796 39.6314H45.032L44.1806 40.1525L44.5058 40.9957L43.6544 40.4746L42.803 40.9957L43.1282 40.1525L42.2768 39.6314H43.3292L43.6544 38.7882Z" fill="white" fill-opacity="0.5"/>
<path d="M43.6544 33.9071L43.9796 34.7503H45.032L44.1806 35.2714L44.5058 36.1146L43.6544 35.5935L42.803 36.1146L43.1282 35.2714L42.2768 34.7503H43.3292L43.6544 33.9071Z" fill="white" fill-opacity="0.5"/>
<path d="M43.6544 29.636L43.9796 30.4792H45.032L44.1806 31.0004L44.5058 31.8436L43.6544 31.3224L42.803 31.8436L43.1282 31.0004L42.2768 30.4792H43.3292L43.6544 29.636Z" fill="white" fill-opacity="0.5"/>
<path d="M43.6544 25.365L43.9796 26.2082H45.032L44.1806 26.7294L44.5058 27.5726L43.6544 27.0514L42.803 27.5726L43.1282 26.7294L42.2768 26.2082H43.3292L43.6544 25.365Z" fill="white" fill-opacity="0.5"/>
<path d="M43.6544 20.4839L43.9796 21.3271H45.032L44.1806 21.8482L44.5058 22.6914L43.6544 22.1703L42.803 22.6914L43.1282 21.8482L42.2768 21.3271H43.3292L43.6544 20.4839Z" fill="white" fill-opacity="0.5"/>
<path d="M49.1266 16.823L49.4518 17.6662H50.5042L49.6528 18.1873L49.978 19.0305L49.1266 18.5094L48.2751 19.0305L48.6003 18.1873L47.7489 17.6662H48.8013L49.1266 16.823Z" fill="white" fill-opacity="0.5"/>
<path d="M49.4485 21.3991L49.7737 22.2423H50.8261L49.9747 22.7634L50.2999 23.6066L49.4485 23.0855L48.597 23.6066L48.9223 22.7634L48.0708 22.2423H49.1233L49.4485 21.3991Z" fill="white" fill-opacity="0.5"/>
<path d="M49.4485 25.9752L49.7737 26.8184H50.8261L49.9747 27.3395L50.2999 28.1827L49.4485 27.6616L48.597 28.1827L48.9223 27.3395L48.0708 26.8184H49.1233L49.4485 25.9752Z" fill="white" fill-opacity="0.5"/>
<path d="M50.0923 29.9411L50.4175 30.7843H51.4699L50.6185 31.3054L50.9437 32.1486L50.0923 31.6275L49.2409 32.1486L49.5661 31.3054L48.7147 30.7843H49.7671L50.0923 29.9411Z" fill="white" fill-opacity="0.5"/>
<path d="M50.0923 34.5172L50.4175 35.3604H51.4699L50.6185 35.8815L50.9437 36.7247L50.0923 36.2036L49.2409 36.7247L49.5661 35.8815L48.7147 35.3604H49.7671L50.0923 34.5172Z" fill="white" fill-opacity="0.5"/>
<path d="M50.4141 38.7882L50.7394 39.6314H51.7918L50.9404 40.1525L51.2656 40.9957L50.4141 40.4746L49.5627 40.9957L49.8879 40.1525L49.0365 39.6314H50.0889L50.4141 38.7882Z" fill="white" fill-opacity="0.5"/>
<path d="M50.7361 43.3643L51.0613 44.2075H52.1137L51.2623 44.7286L51.5875 45.5718L50.7361 45.0507L49.8846 45.5718L50.2099 44.7286L49.3584 44.2075H50.4108L50.7361 43.3643Z" fill="white" fill-opacity="0.5"/>
<path d="M57.4958 39.0933L57.821 39.9365H58.8735L58.022 40.4576L58.3472 41.3008L57.4958 40.7797L56.6444 41.3008L56.9696 40.4576L56.1182 39.9365H57.1706L57.4958 39.0933Z" fill="white" fill-opacity="0.5"/>
<path d="M57.4958 35.1273L57.821 35.9705H58.8735L58.022 36.4917L58.3472 37.3349L57.4958 36.8137L56.6444 37.3349L56.9696 36.4917L56.1182 35.9705H57.1706L57.4958 35.1273Z" fill="white" fill-opacity="0.5"/>
<path d="M57.4958 30.5513L57.821 31.3945H58.8735L58.022 31.9156L58.3472 32.7588L57.4958 32.2377L56.6444 32.7588L56.9696 31.9156L56.1182 31.3945H57.1706L57.4958 30.5513Z" fill="white" fill-opacity="0.5"/>
<path d="M57.4958 26.2802L57.821 27.1234H58.8735L58.022 27.6445L58.3472 28.4877L57.4958 27.9666L56.6444 28.4877L56.9696 27.6445L56.1182 27.1234H57.1706L57.4958 26.2802Z" fill="white" fill-opacity="0.5"/>
<path d="M57.4958 21.3991L57.821 22.2423H58.8735L58.022 22.7634L58.3472 23.6066L57.4958 23.0855L56.6444 23.6066L56.9696 22.7634L56.1182 22.2423H57.1706L57.4958 21.3991Z" fill="white" fill-opacity="0.5"/>
<path d="M57.174 17.4331L57.4992 18.2763H58.5516L57.7002 18.7975L58.0254 19.6407L57.174 19.1195L56.3225 19.6407L56.6478 18.7975L55.7963 18.2763H56.8488L57.174 17.4331Z" fill="white" fill-opacity="0.5"/>
<path d="M57.174 12.552L57.4992 13.3952H58.5516L57.7002 13.9163L58.0254 14.7595L57.174 14.2384L56.3225 14.7595L56.6478 13.9163L55.7963 13.3952H56.8488L57.174 12.552Z" fill="white" fill-opacity="0.5"/>
<path d="M63.9337 17.4331L64.2589 18.2763H65.3114L64.4599 18.7975L64.7852 19.6407L63.9337 19.1195L63.0823 19.6407L63.4075 18.7975L62.5561 18.2763H63.6085L63.9337 17.4331Z" fill="white" fill-opacity="0.5"/>
<path d="M63.9337 22.3143L64.2589 23.1575H65.3114L64.4599 23.6786L64.7852 24.5218L63.9337 24.0007L63.0823 24.5218L63.4075 23.6786L62.5561 23.1575H63.6085L63.9337 22.3143Z" fill="white" fill-opacity="0.5"/>
<path d="M63.9337 26.8904L64.2589 27.7336H65.3114L64.4599 28.2547L64.7852 29.0979L63.9337 28.5768L63.0823 29.0979L63.4075 28.2547L62.5561 27.7336H63.6085L63.9337 26.8904Z" fill="white" fill-opacity="0.5"/>
<path d="M63.9337 30.8563L64.2589 31.6995H65.3114L64.4599 32.2207L64.7852 33.0639L63.9337 32.5427L63.0823 33.0639L63.4075 32.2207L62.5561 31.6995H63.6085L63.9337 30.8563Z" fill="white" fill-opacity="0.5"/>
<path d="M64.2556 35.4324L64.5809 36.2756H65.6333L64.7819 36.7967L65.1071 37.6399L64.2556 37.1188L63.4042 37.6399L63.7294 36.7967L62.878 36.2756H63.9304L64.2556 35.4324Z" fill="white" fill-opacity="0.5"/>
<path d="M71.0155 31.1614L71.3407 32.0046H72.3931L71.5417 32.5257L71.8669 33.3689L71.0155 32.8478L70.164 33.3689L70.4893 32.5257L69.6378 32.0046H70.6903L71.0155 31.1614Z" fill="white" fill-opacity="0.5"/>
<path d="M71.0155 27.1954L71.3407 28.0386H72.3931L71.5417 28.5598L71.8669 29.403L71.0155 28.8818L70.164 29.403L70.4893 28.5598L69.6378 28.0386H70.6903L71.0155 27.1954Z" fill="white" fill-opacity="0.5"/>
<path d="M71.0155 22.3143L71.3407 23.1575H72.3931L71.5417 23.6786L71.8669 24.5218L71.0155 24.0007L70.164 24.5218L70.4893 23.6786L69.6378 23.1575H70.6903L71.0155 22.3143Z" fill="white" fill-opacity="0.5"/>
<path d="M77.7752 27.1954L78.1004 28.0386H79.1529L78.3014 28.5598L78.6267 29.403L77.7752 28.8818L76.9238 29.403L77.249 28.5598L76.3976 28.0386H77.45L77.7752 27.1954Z" fill="white" fill-opacity="0.5"/>
</g>
<defs>
<filter id="filter0_d_23_62" x="0" y="0" width="153" height="106.52" filterUnits="userSpaceOnUse" color-interpolation-filters="sRGB">
<feFlood flood-opacity="0" result="BackgroundImageFix"/>
<feColorMatrix in="SourceAlpha" type="matrix" values="0 0 0 0 0 0 0 0 0 0 0 0 0 0 0 0 0 0 127 0" result="hardAlpha"/>
<feOffset dx="10" dy="4"/>
<feGaussianBlur stdDeviation="2"/>
<feComposite in2="hardAlpha" operator="out"/>
<feColorMatrix type="matrix" values="0 0 0 0 0 0 0 0 0 0 0 0 0 0 0 0 0 0 0.25 0"/>
<feBlend mode="normal" in2="BackgroundImageFix" result="effect1_dropShadow_23_62"/>
<feBlend mode="normal" in="SourceGraphic" in2="effect1_dropShadow_23_62" result="shape"/>
</filter>
<filter id="filter1_d_23_62" x="82.365" y="0" width="60.6022" height="61.807" filterUnits="userSpaceOnUse" color-interpolation-filters="sRGB">
<feFlood flood-opacity="0" result="BackgroundImageFix"/>
<feColorMatrix in="SourceAlpha" type="matrix" values="0 0 0 0 0 0 0 0 0 0 0 0 0 0 0 0 0 0 127 0" result="hardAlpha"/>
<feOffset dy="4"/>
<feGaussianBlur stdDeviation="2"/>
<feComposite in2="hardAlpha" operator="out"/>
<feColorMatrix type="matrix" values="0 0 0 0 0 0 0 0 0 0 0 0 0 0 0 0 0 0 0.25 0"/>
<feBlend mode="normal" in2="BackgroundImageFix" result="effect1_dropShadow_23_62"/>
<feBlend mode="normal" in="SourceGraphic" in2="effect1_dropShadow_23_62" result="shape"/>
</filter>
</defs>
</svg>
